<svg width="347.775" height="72.225" viewBox="0 0 347.775 72.225" xmlns="http://www.w3.org/2000/svg"><g id="svgGroup" stroke-linecap="round" fill-rule="evenodd" font-size="9pt" stroke="#ba8e36" stroke-width="0.25mm" fill="#ffc34a" style="stroke:#ba8e36;stroke-width:0.25mm;fill:#ffc34a"><path d="M 0 37.875 L 0 36.9 A 4.308 4.308 0 0 1 0.044 36.273 A 3.585 3.585 0 0 1 0.113 35.925 A 0.738 0.738 0 0 1 0.196 35.718 Q 0.345 35.475 0.675 35.475 A 0.216 0.216 0 0 1 0.734 35.483 Q 0.825 35.508 0.825 35.625 Q 0.825 36.075 0.788 36.525 Q 0.75 36.975 0.75 37.425 A 11.234 11.234 0 0 0 0.922 39.46 Q 1.301 41.513 2.513 42.75 Q 4.275 44.55 6.9 44.55 A 9.44 9.44 0 0 0 11.145 43.521 A 11.648 11.648 0 0 0 12 43.05 A 20.062 20.062 0 0 0 15.91 39.931 A 23.001 23.001 0 0 0 16.575 39.225 Q 18.023 37.651 19.445 35.284 A 37.9 37.9 0 0 0 19.988 34.35 Q 21.675 31.35 23.475 27.9 A 420.07 420.07 0 0 0 19.748 28.034 A 480.244 480.244 0 0 0 18.45 28.088 Q 15.825 28.2 13.65 28.575 Q 13.001 28.647 13.254 28.233 A 1.014 1.014 0 0 1 13.275 28.2 Q 13.575 27.75 14.4 27.075 Q 15.225 26.4 16.163 25.875 A 8.231 8.231 0 0 1 16.663 25.615 Q 17.173 25.374 17.56 25.298 A 2.017 2.017 0 0 1 17.7 25.275 Q 18.975 25.35 20.888 25.388 Q 22.8 25.425 24.675 25.5 Q 26.325 22.5 27.863 19.388 Q 29.4 16.275 30.75 13.575 A 15.299 15.299 0 0 1 31.748 11.876 A 19.574 19.574 0 0 1 32.738 10.538 Q 33.975 9 35.513 7.8 A 8.285 8.285 0 0 1 37.075 6.827 A 6.552 6.552 0 0 1 38.7 6.3 A 405.821 405.821 0 0 1 31.543 6.505 A 445.88 445.88 0 0 1 30.488 6.525 A 32.964 32.964 0 0 0 23.509 7.374 A 30.226 30.226 0 0 0 22.425 7.65 A 14.465 14.465 0 0 0 20.603 8.251 A 11.66 11.66 0 0 0 19.35 8.85 A 5.738 5.738 0 0 0 18.344 9.55 A 4.183 4.183 0 0 0 17.4 10.725 A 5.158 5.158 0 0 0 16.801 13.116 A 6.028 6.028 0 0 0 16.8 13.2 Q 16.8 14.403 17.232 15.174 A 2.414 2.414 0 0 0 17.85 15.9 Q 17.9 15.95 17.917 16 A 0.157 0.157 0 0 1 17.925 16.05 Q 17.925 16.177 17.737 16.304 A 1.174 1.174 0 0 1 17.663 16.35 Q 17.488 16.45 17.329 16.45 A 0.484 0.484 0 0 1 17.175 16.425 A 2.242 2.242 0 0 1 16.783 16.139 Q 16.414 15.81 15.973 15.223 A 13.931 13.931 0 0 1 15.525 14.588 A 14.09 14.09 0 0 1 15.012 13.762 Q 14.544 12.942 14.366 12.31 A 3.484 3.484 0 0 1 14.325 12.15 Q 14.104 11.265 14.1 10.525 A 5.026 5.026 0 0 1 14.1 10.5 A 4.783 4.783 0 0 1 14.265 9.21 A 3.472 3.472 0 0 1 15.375 7.463 Q 16.65 6.375 18.6 5.888 Q 20.55 5.4 22.575 5.288 Q 24.315 5.191 25.723 5.177 A 46.808 46.808 0 0 1 26.175 5.175 L 34.5 5.175 Q 37.35 5.175 39.45 5.138 Q 41.503 5.101 42.768 4.885 A 10.426 10.426 0 0 0 42.825 4.875 A 0.965 0.965 0 0 0 42.903 4.872 Q 42.982 4.866 43.032 4.846 A 0.233 0.233 0 0 0 43.05 4.838 A 0.361 0.361 0 0 1 43.134 4.807 A 0.306 0.306 0 0 1 43.2 4.8 Q 43.633 4.8 43.649 5.078 A 0.379 0.379 0 0 1 43.65 5.1 A 0.702 0.702 0 0 1 43.537 5.478 A 1.052 1.052 0 0 1 43.388 5.663 Q 43.14 5.91 42.992 5.924 A 0.183 0.183 0 0 1 42.975 5.925 A 7.096 7.096 0 0 0 39.788 7.062 A 9.447 9.447 0 0 0 38.625 7.95 Q 36.6 9.75 34.95 12.6 Q 34.581 13.277 33.707 14.913 A 1235.775 1235.775 0 0 0 33.3 15.675 A 1134.611 1134.611 0 0 0 32.044 18.038 A 1485.762 1485.762 0 0 0 30.675 20.625 A 697.551 697.551 0 0 0 29.306 23.231 A 553.555 553.555 0 0 0 28.05 25.65 A 301.915 301.915 0 0 0 28.732 25.685 Q 29.644 25.731 30.318 25.759 A 102.249 102.249 0 0 0 30.413 25.763 A 229.125 229.125 0 0 0 30.736 25.775 Q 31.263 25.796 31.44 25.799 A 3.112 3.112 0 0 0 31.5 25.8 L 42.525 25.8 A 6.993 6.993 0 0 0 42.905 25.788 Q 43.461 25.757 44.415 25.649 A 69.935 69.935 0 0 0 45.038 25.575 A 16.901 16.901 0 0 0 46.077 25.417 Q 47.057 25.234 47.702 24.965 A 4.373 4.373 0 0 0 47.85 24.9 Q 49.875 21 51.975 17.175 Q 54.075 13.35 55.913 10.313 A 103.02 103.02 0 0 1 56.782 8.899 Q 57.672 7.481 58.33 6.558 A 19.286 19.286 0 0 1 58.8 5.925 A 57.395 57.395 0 0 0 59.98 5.423 Q 60.58 5.16 61.241 4.857 A 97.732 97.732 0 0 0 61.688 4.65 Q 63.3 3.9 64.913 3.3 Q 66.218 2.814 67.302 2.722 A 5.857 5.857 0 0 1 67.8 2.7 A 1.415 1.415 0 0 1 68.221 2.767 Q 68.389 2.82 68.564 2.913 A 2.428 2.428 0 0 1 68.588 2.925 A 1.721 1.721 0 0 1 68.748 3.024 Q 68.906 3.133 68.965 3.243 A 0.276 0.276 0 0 1 69 3.375 A 0.219 0.219 0 0 1 68.876 3.559 Q 68.574 3.747 67.534 3.75 A 11.772 11.772 0 0 1 67.5 3.75 A 4.805 4.805 0 0 0 66.508 3.858 A 6.015 6.015 0 0 0 65.925 4.013 Q 65.263 4.223 64.312 5.134 A 13.716 13.716 0 0 0 63.825 5.625 A 11.219 11.219 0 0 0 63.184 6.331 Q 62.3 7.382 61.088 9.188 A 91.222 91.222 0 0 0 59.448 11.724 Q 58.606 13.072 57.708 14.598 A 154.262 154.262 0 0 0 57.45 15.038 A 236.917 236.917 0 0 0 54.504 20.234 A 266.011 266.011 0 0 0 53.513 22.05 Q 51.525 25.725 49.8 29.213 Q 48.19 32.468 47.037 35.136 A 88.104 88.104 0 0 0 46.875 35.513 Q 45.675 38.325 45.3 39.825 Q 45.225 40.35 45.113 40.988 A 7.27 7.27 0 0 0 45.004 41.999 A 6.516 6.516 0 0 0 45 42.225 A 4.053 4.053 0 0 0 45.164 43.399 A 3.457 3.457 0 0 0 45.6 44.325 A 1.809 1.809 0 0 0 46.458 44.998 Q 47.022 45.225 47.85 45.225 Q 49.05 45.225 50.288 44.775 A 18.832 18.832 0 0 0 51.563 44.26 A 14.513 14.513 0 0 0 52.5 43.8 A 16.961 16.961 0 0 0 56.541 40.645 A 19.934 19.934 0 0 0 57.375 39.713 Q 59.55 37.125 60.9 35.325 Q 61.115 35.039 61.193 35.026 A 0.043 0.043 0 0 1 61.2 35.025 Q 61.424 35.025 61.425 35.544 A 2.417 2.417 0 0 1 61.425 35.55 Q 61.425 36 61.2 36.375 A 41.686 41.686 0 0 1 60.005 37.983 Q 59.454 38.691 58.815 39.461 A 83.506 83.506 0 0 1 57.45 41.063 Q 55.125 43.725 52.05 45.45 A 10.911 10.911 0 0 1 48.161 46.635 A 13.647 13.647 0 0 1 46.575 46.725 Q 44.25 46.725 42.563 45.038 A 5.559 5.559 0 0 1 40.875 41.025 A 6.779 6.779 0 0 1 40.875 40.95 A 6.735 6.735 0 0 1 41.257 38.738 A 7.687 7.687 0 0 1 41.325 38.55 A 37.036 37.036 0 0 1 41.716 37.594 Q 42.384 36.019 43.538 33.6 Q 45.075 30.375 47.025 26.475 A 8.495 8.495 0 0 1 45.773 27.403 A 9.85 9.85 0 0 1 45.3 27.675 A 4.184 4.184 0 0 1 44.565 27.989 Q 43.98 28.171 43.425 28.125 A 52.68 52.68 0 0 0 41.105 27.955 Q 39.886 27.892 38.528 27.868 A 87.873 87.873 0 0 0 38.138 27.863 A 366.223 366.223 0 0 0 36.551 27.846 Q 34.369 27.828 31.487 27.825 A 1087.994 1087.994 0 0 0 30.525 27.825 L 26.925 27.825 Q 24.825 32.1 22.575 36.188 Q 20.606 39.765 18.522 42.222 A 24.273 24.273 0 0 1 17.925 42.9 A 14.933 14.933 0 0 1 13.588 46.12 A 16.9 16.9 0 0 1 13.425 46.2 Q 10.8 47.475 8.175 47.475 A 7.949 7.949 0 0 1 4.146 46.366 A 9.625 9.625 0 0 1 3.75 46.125 A 7.781 7.781 0 0 1 1.13 43.274 A 10.078 10.078 0 0 1 0.6 42.15 A 7.903 7.903 0 0 1 0.154 40.398 A 9.03 9.03 0 0 1 0.113 40.05 A 22.252 22.252 0 0 1 0.003 38.205 A 19.931 19.931 0 0 1 0 37.875 Z M 164.325 62.7 L 164.325 61.875 A 4.151 4.151 0 0 1 164.367 61.269 A 3.248 3.248 0 0 1 164.475 60.788 A 0.681 0.681 0 0 1 164.643 60.498 Q 164.767 60.376 164.959 60.329 A 1.129 1.129 0 0 1 165.225 60.3 A 0.216 0.216 0 0 1 165.284 60.308 Q 165.375 60.333 165.375 60.45 Q 165.375 60.9 165.3 61.35 A 5.488 5.488 0 0 0 165.236 61.942 A 6.783 6.783 0 0 0 165.225 62.325 A 8.564 8.564 0 0 0 165.475 64.457 A 5.745 5.745 0 0 0 167.438 67.575 A 7.939 7.939 0 0 0 171.321 69.255 A 10.72 10.72 0 0 0 172.95 69.375 Q 174.3 69.375 175.725 69.075 A 15.454 15.454 0 0 0 178.345 68.283 A 14.354 14.354 0 0 0 178.425 68.25 Q 183.15 66.225 186.638 62.513 Q 190.125 58.8 192.75 54.15 Q 195.375 49.5 197.475 44.7 Q 198.675 41.85 199.613 39.15 Q 200.543 36.471 201.288 34.309 A 2403.43 2403.43 0 0 0 201.3 34.275 Q 200.55 35.325 199.35 36.825 Q 198.15 38.325 196.95 39.713 A 39.492 39.492 0 0 1 196.126 40.637 Q 195.427 41.397 194.85 41.925 Q 192.975 43.725 190.838 44.963 A 9.267 9.267 0 0 1 188.328 45.98 A 8.117 8.117 0 0 1 186.45 46.2 Q 185.714 46.2 185.194 45.911 A 1.967 1.967 0 0 1 185.175 45.9 Q 184.65 45.6 184.65 44.775 A 4.871 4.871 0 0 1 184.736 43.898 Q 184.815 43.465 184.968 42.983 A 10.624 10.624 0 0 1 185.213 42.3 Q 185.775 40.875 186.45 39.45 A 202.063 202.063 0 0 1 186.773 38.77 Q 187.172 37.937 187.478 37.321 A 65.926 65.926 0 0 1 187.575 37.125 Q 188.475 35.4 189.3 33.675 Q 189.867 32.489 190.328 31.551 A 130.031 130.031 0 0 1 190.725 30.75 A 14.831 14.831 0 0 0 190.929 30.355 Q 191.237 29.733 191.305 29.411 A 0.787 0.787 0 0 0 191.325 29.25 A 0.582 0.582 0 0 0 191.313 29.126 Q 191.231 28.75 190.57 29.178 A 3.931 3.931 0 0 0 190.463 29.25 A 31.1 31.1 0 0 0 189.232 30.15 A 27.167 27.167 0 0 0 188.85 30.45 Q 187.2 32.025 185.4 34.163 Q 183.6 36.3 182.625 37.575 A 1.812 1.812 0 0 1 182.531 37.691 Q 182.368 37.875 182.25 37.875 Q 182.1 37.875 182.1 37.5 Q 182.1 36.9 182.475 36.375 A 59.217 59.217 0 0 1 183.58 34.852 Q 184.176 34.056 184.859 33.191 A 97.011 97.011 0 0 1 184.95 33.075 Q 186.375 31.275 187.875 29.625 Q 189.3 28.125 190.8 26.7 A 5.13 5.13 0 0 1 193.849 25.317 A 6.948 6.948 0 0 1 194.625 25.275 A 3.033 3.033 0 0 1 195.199 25.324 Q 196.2 25.518 196.2 26.475 A 3.005 3.005 0 0 1 196.063 27.341 Q 195.946 27.73 195.728 28.152 A 7.449 7.449 0 0 1 195.3 28.875 A 30.581 30.581 0 0 0 195 29.358 Q 194.494 30.188 193.65 31.65 A 84.512 84.512 0 0 0 192.229 34.219 A 102.716 102.716 0 0 0 191.363 35.888 Q 190.2 38.175 189.375 40.125 A 20.17 20.17 0 0 0 189.015 41.031 Q 188.712 41.856 188.607 42.431 A 3.049 3.049 0 0 0 188.55 42.975 A 1.512 1.512 0 0 0 188.602 43.391 Q 188.736 43.857 189.211 43.98 A 1.547 1.547 0 0 0 189.6 44.025 Q 190.425 44.025 191.625 43.163 A 21.952 21.952 0 0 0 192.999 42.085 A 28.306 28.306 0 0 0 194.1 41.1 Q 196.275 39 198.113 36.45 A 65.882 65.882 0 0 0 200.025 33.653 A 52.086 52.086 0 0 0 201.3 31.575 Q 201.525 31.2 202.088 30.225 Q 202.65 29.25 203.288 28.35 A 8.753 8.753 0 0 1 203.554 27.992 Q 203.956 27.482 204.232 27.333 A 0.648 0.648 0 0 1 204.3 27.3 A 2.969 2.969 0 0 0 204.5 27.209 Q 204.822 27.051 205.413 26.705 A 43.882 43.882 0 0 0 205.8 26.475 A 7.757 7.757 0 0 1 207.066 25.858 A 6.346 6.346 0 0 1 208.05 25.575 A 17.109 17.109 0 0 1 208.542 25.477 Q 209.231 25.35 209.625 25.35 A 2.259 2.259 0 0 1 209.905 25.366 Q 210.195 25.402 210.331 25.523 A 0.353 0.353 0 0 1 210.45 25.8 A 0.762 0.762 0 0 1 210.413 26.048 Q 210.297 26.386 209.815 26.4 A 1.452 1.452 0 0 1 209.775 26.4 Q 208.95 26.4 208.275 26.813 A 3.407 3.407 0 0 0 207.611 27.336 A 2.889 2.889 0 0 0 207.225 27.825 A 10.356 10.356 0 0 0 206.852 28.411 Q 206.247 29.426 205.333 31.308 A 88.249 88.249 0 0 0 205.313 31.35 A 136.116 136.116 0 0 0 204.187 33.732 Q 203.435 35.36 202.613 37.238 Q 201.15 40.575 199.725 43.988 Q 198.3 47.4 197.1 50.25 Q 195.3 54.525 192.975 58.613 Q 190.65 62.7 187.538 65.963 Q 184.425 69.225 180.15 71.1 A 13.349 13.349 0 0 1 175.753 72.179 A 15.99 15.99 0 0 1 174.525 72.225 Q 171.675 72.225 169.013 70.913 Q 166.35 69.6 165.075 66.9 Q 164.625 65.925 164.475 64.838 Q 164.325 63.75 164.325 62.7 Z M 120.675 34.875 L 124.2 31.35 A 26.893 26.893 0 0 1 124.828 30.744 Q 125.592 30.028 126.675 29.1 Q 128.25 27.75 129.975 26.625 Q 131.695 25.503 132.968 25.351 A 3.573 3.573 0 0 1 132.975 25.35 A 2.604 2.604 0 0 1 133.292 25.29 A 2.035 2.035 0 0 1 133.538 25.275 L 133.95 25.275 A 3.342 3.342 0 0 1 134.542 25.323 Q 135.6 25.514 135.6 26.475 Q 135.6 27.234 134.907 28.419 A 11.359 11.359 0 0 1 134.625 28.875 A 30.581 30.581 0 0 0 134.325 29.358 Q 133.819 30.188 132.975 31.65 A 84.512 84.512 0 0 0 131.554 34.219 A 102.716 102.716 0 0 0 130.688 35.888 Q 129.525 38.175 128.7 40.125 A 20.17 20.17 0 0 0 128.34 41.031 Q 128.037 41.856 127.932 42.431 A 3.049 3.049 0 0 0 127.875 42.975 A 1.512 1.512 0 0 0 127.927 43.391 Q 128.061 43.857 128.536 43.98 A 1.547 1.547 0 0 0 128.925 44.025 Q 129.75 44.025 130.977 43.193 A 10.979 10.979 0 0 0 131.438 42.863 A 25.124 25.124 0 0 0 133.142 41.445 A 32.906 32.906 0 0 0 134.588 40.05 Q 136.2 38.4 137.4 36.9 Q 137.925 36.3 138.413 35.663 Q 138.879 35.052 138.968 34.957 A 0.31 0.31 0 0 1 138.975 34.95 Q 139.112 35.087 139.124 35.412 A 1.733 1.733 0 0 1 139.125 35.475 A 1.677 1.677 0 0 1 138.921 36.269 A 2.158 2.158 0 0 1 138.788 36.488 Q 138.45 36.975 138.15 37.35 A 53.545 53.545 0 0 1 136.312 39.63 A 66.932 66.932 0 0 1 134.888 41.25 A 19.896 19.896 0 0 1 131.179 44.464 A 18.562 18.562 0 0 1 130.875 44.663 Q 128.7 46.05 126.225 46.275 Q 125.622 46.335 125.018 46.104 A 3.267 3.267 0 0 1 124.725 45.975 A 1.478 1.478 0 0 1 124.3 45.666 Q 123.975 45.318 123.975 44.775 A 4.871 4.871 0 0 1 124.061 43.898 Q 124.14 43.465 124.293 42.983 A 10.624 10.624 0 0 1 124.538 42.3 Q 125.1 40.875 125.813 39.45 Q 126.45 38.175 126.817 37.321 A 19.132 19.132 0 0 0 126.9 37.125 A 251.833 251.833 0 0 0 128.194 34.575 A 206.165 206.165 0 0 0 129.375 32.175 A 541.29 541.29 0 0 0 129.895 31.097 Q 130.537 29.764 130.875 29.038 A 57.461 57.461 0 0 0 130.95 28.875 Q 131.175 28.425 131.175 28.125 A 0.463 0.463 0 0 0 131.161 28.005 Q 131.071 27.672 130.404 28.021 A 3.592 3.592 0 0 0 130.35 28.05 Q 129.796 28.352 129.089 28.858 A 24.011 24.011 0 0 0 128.363 29.4 A 45.446 45.446 0 0 0 126.983 30.51 A 37.835 37.835 0 0 0 126.225 31.163 A 103.725 103.725 0 0 0 125.831 31.513 Q 125.298 31.989 125.045 32.232 A 6.709 6.709 0 0 0 124.95 32.325 A 29.129 29.129 0 0 0 124.016 33.308 Q 123.543 33.828 123.017 34.445 A 69.474 69.474 0 0 0 121.913 35.775 Q 120.15 37.95 118.65 40.313 A 22.845 22.845 0 0 0 117.58 42.176 Q 116.906 43.498 116.55 44.7 A 3.601 3.601 0 0 1 116.111 45.041 Q 115.863 45.203 115.624 45.286 A 1.511 1.511 0 0 1 115.125 45.375 A 1.198 1.198 0 0 1 114.674 45.293 A 1.105 1.105 0 0 1 114.263 45 Q 113.925 44.625 113.925 44.1 Q 113.925 42.6 114.863 40.538 A 723.063 723.063 0 0 0 115.31 39.551 Q 115.95 38.138 116.4 37.125 A 251.833 251.833 0 0 0 117.694 34.575 A 206.163 206.163 0 0 0 118.875 32.175 A 541.29 541.29 0 0 0 119.395 31.097 Q 120.037 29.764 120.375 29.038 A 57.461 57.461 0 0 0 120.45 28.875 Q 120.675 28.425 120.675 28.125 A 0.463 0.463 0 0 0 120.661 28.005 Q 120.571 27.672 119.904 28.021 A 3.592 3.592 0 0 0 119.85 28.05 Q 119.296 28.352 118.589 28.858 A 24.011 24.011 0 0 0 117.863 29.4 A 45.446 45.446 0 0 0 116.483 30.51 A 37.835 37.835 0 0 0 115.725 31.163 A 103.725 103.725 0 0 0 115.331 31.513 Q 114.798 31.989 114.545 32.232 A 6.709 6.709 0 0 0 114.45 32.325 Q 112.65 34.2 111.113 36.15 Q 109.575 38.1 108.525 40.35 Q 107.925 41.7 107.25 43.35 A 593.814 593.814 0 0 0 106.927 44.142 Q 106.463 45.281 106.125 46.125 A 5.506 5.506 0 0 0 104.571 46.483 A 6.488 6.488 0 0 0 104.175 46.65 Q 103.294 47.057 102.903 47.096 A 0.784 0.784 0 0 1 102.825 47.1 Q 102.525 47.1 102.825 46.425 A 12.896 12.896 0 0 0 103.268 45.547 A 15.991 15.991 0 0 0 103.538 44.925 Q 103.875 44.1 104.25 43.125 Q 104.994 41.339 105.886 39.11 A 425.218 425.218 0 0 0 105.9 39.075 A 389.028 389.028 0 0 0 107.573 34.821 A 356.65 356.65 0 0 0 107.625 34.688 Q 108.45 32.55 109.088 31.013 Q 109.725 29.475 109.95 29.025 A 73.332 73.332 0 0 0 109.105 29.948 Q 108.728 30.365 108.311 30.838 A 151.42 151.42 0 0 0 107.438 31.838 Q 105.975 33.525 104.7 35.1 A 165.966 165.966 0 0 0 104.1 35.845 Q 103.256 36.9 102.75 37.575 A 1.812 1.812 0 0 1 102.656 37.691 Q 102.493 37.875 102.375 37.875 Q 102.225 37.875 102.225 37.5 Q 102.225 36.9 102.6 36.375 A 853.954 853.954 0 0 0 104.085 34.494 Q 104.867 33.5 105.732 32.396 A 1497.418 1497.418 0 0 0 105.788 32.325 Q 107.55 30.075 108.975 28.163 A 154.522 154.522 0 0 0 109.548 27.389 Q 110.263 26.416 110.602 25.914 A 9.177 9.177 0 0 0 110.775 25.65 A 293.449 293.449 0 0 0 111.237 25.566 Q 111.764 25.469 112.5 25.332 A 1311.691 1311.691 0 0 0 113.213 25.2 Q 114.478 24.965 115.12 24.591 A 1.963 1.963 0 0 0 115.425 24.375 A 1.014 1.014 0 0 1 115.562 24.259 Q 115.644 24.202 115.726 24.175 A 0.472 0.472 0 0 1 115.875 24.15 Q 116.018 24.15 116.059 24.388 A 0.885 0.885 0 0 1 116.063 24.413 A 0.535 0.535 0 0 1 116.068 24.488 Q 116.068 24.718 115.875 24.975 A 4.253 4.253 0 0 0 115.648 25.271 Q 115.295 25.767 114.714 26.759 A 60.36 60.36 0 0 0 114.338 27.413 Q 113.25 29.325 112.013 31.65 Q 110.775 33.975 109.725 35.85 A 93.855 93.855 0 0 1 111.504 33.797 A 83.598 83.598 0 0 1 112.088 33.15 A 222.15 222.15 0 0 0 112.623 32.561 Q 113.284 31.83 113.624 31.438 A 21.48 21.48 0 0 0 113.7 31.35 A 26.893 26.893 0 0 1 114.328 30.744 Q 115.092 30.028 116.175 29.1 Q 117.75 27.75 119.475 26.625 Q 121.195 25.503 122.468 25.351 A 3.573 3.573 0 0 1 122.475 25.35 A 2.96 2.96 0 0 1 122.689 25.304 Q 122.859 25.275 123 25.275 L 123.45 25.275 A 2.85 2.85 0 0 1 123.961 25.317 Q 124.834 25.477 124.873 26.251 A 1.468 1.468 0 0 1 124.875 26.325 Q 124.875 26.675 124.739 27.115 A 4.631 4.631 0 0 1 124.65 27.375 Q 124.425 27.975 124.05 28.575 A 36.188 36.188 0 0 1 123.788 29.088 Q 123.338 29.953 122.55 31.388 Q 121.5 33.3 120.675 34.875 Z M 224.625 30.825 L 224.7 30.825 Q 224.838 30.825 225.07 31.11 A 2.801 2.801 0 0 1 225.113 31.163 A 0.893 0.893 0 0 1 225.169 31.243 Q 225.338 31.519 225.075 31.65 Q 224.325 32.4 223.988 33.338 A 5.821 5.821 0 0 0 223.65 35.317 A 6.466 6.466 0 0 0 223.65 35.325 A 8.916 8.916 0 0 0 223.997 37.756 A 10.256 10.256 0 0 0 224.138 38.213 Q 224.625 39.675 225.375 40.725 A 12.112 12.112 0 0 0 228.826 43.937 A 15.35 15.35 0 0 0 230.588 44.888 A 17.195 17.195 0 0 0 234.204 46.109 A 14.13 14.13 0 0 0 237.15 46.425 Q 241.575 46.425 244.013 43.8 A 9.048 9.048 0 0 0 246.444 37.735 A 11.725 11.725 0 0 0 246.45 37.35 A 12.657 12.657 0 0 0 245.714 33.145 A 14.542 14.542 0 0 0 245.55 32.7 A 32.997 32.997 0 0 0 242.847 27.142 A 37.044 37.044 0 0 0 242.363 26.363 A 111.929 111.929 0 0 1 239.571 21.757 A 99.891 99.891 0 0 1 238.725 20.25 Q 237.3 17.55 237.3 14.775 A 9.678 9.678 0 0 1 238.511 10.128 A 12.169 12.169 0 0 1 239.1 9.15 A 12.664 12.664 0 0 1 242.792 5.869 A 15.303 15.303 0 0 1 243.863 5.288 A 13.961 13.961 0 0 1 248.084 3.954 A 12.834 12.834 0 0 1 249.9 3.825 Q 252 3.825 253.95 4.575 Q 255.9 5.325 257.475 7.05 A 2.546 2.546 0 0 1 257.826 7.873 Q 257.925 8.283 257.925 8.775 Q 257.925 10.275 257.325 11.1 A 16.672 16.672 0 0 0 256.809 11.897 Q 256.347 12.653 255.825 13.65 A 34.628 34.628 0 0 0 255.496 14.292 Q 255.06 15.169 254.904 15.642 A 2.59 2.59 0 0 0 254.85 15.825 Q 254.701 15.9 254.145 16.085 A 29.814 29.814 0 0 1 254.138 16.088 Q 253.575 16.275 253.425 16.05 A 6.295 6.295 0 0 0 253.589 15.689 Q 253.85 15.07 254.233 13.927 A 56.994 56.994 0 0 0 254.25 13.875 A 11.507 11.507 0 0 0 254.6 12.6 Q 254.737 11.945 254.767 11.352 A 6.481 6.481 0 0 0 254.775 11.025 Q 254.775 10.2 254.738 9.188 A 2.093 2.093 0 0 0 254.205 7.874 A 3.196 3.196 0 0 0 253.725 7.425 Q 252.881 6.652 251.576 6.076 A 11.355 11.355 0 0 0 251.4 6 A 7.165 7.165 0 0 0 249.932 5.569 Q 249.026 5.4 247.95 5.4 Q 244.583 5.4 242.515 6.999 A 6.684 6.684 0 0 0 241.65 7.8 Q 239.475 10.2 239.475 13.05 A 7.143 7.143 0 0 0 239.902 15.455 A 8.356 8.356 0 0 0 240.075 15.9 A 19.322 19.322 0 0 0 242.793 20.471 A 21.978 21.978 0 0 0 243.225 21 Q 245.25 23.4 247.238 25.913 Q 249.225 28.425 250.35 31.35 Q 251.1 33.3 251.1 35.325 Q 251.1 38.25 249.638 40.65 A 14.161 14.161 0 0 1 246.186 44.476 A 16.32 16.32 0 0 1 245.738 44.813 Q 243.3 46.575 240.45 47.55 A 17.596 17.596 0 0 1 235.106 48.521 A 16.666 16.666 0 0 1 234.75 48.525 A 19.576 19.576 0 0 1 231.192 48.186 A 24.001 24.001 0 0 1 229.238 47.738 Q 226.35 46.95 224.138 45.15 A 8.572 8.572 0 0 1 221.342 40.947 A 10.76 10.76 0 0 1 221.175 40.35 Q 221.1 39.975 221.063 39.525 Q 221.025 39.075 221.025 38.625 Q 221.025 36.3 222.075 34.125 A 11.246 11.246 0 0 1 223.001 32.533 Q 223.734 31.494 224.625 30.825 Z M 157.95 47.1 Q 157.65 47.1 157.95 46.425 A 12.896 12.896 0 0 0 158.393 45.547 A 15.991 15.991 0 0 0 158.663 44.925 Q 159 44.1 159.375 43.125 Q 160.119 41.339 161.011 39.11 A 425.218 425.218 0 0 0 161.025 39.075 A 389.028 389.028 0 0 0 162.698 34.821 A 356.65 356.65 0 0 0 162.75 34.688 Q 163.575 32.55 164.213 31.013 Q 164.85 29.475 165.075 29.025 A 73.332 73.332 0 0 0 164.23 29.948 Q 163.853 30.365 163.436 30.838 A 151.42 151.42 0 0 0 162.563 31.838 Q 161.1 33.525 159.825 35.1 A 165.966 165.966 0 0 0 159.225 35.845 Q 158.381 36.9 157.875 37.575 A 1.812 1.812 0 0 1 157.781 37.691 Q 157.618 37.875 157.5 37.875 Q 157.35 37.875 157.35 37.5 Q 157.35 36.9 157.725 36.375 A 853.954 853.954 0 0 0 159.21 34.494 Q 159.992 33.5 160.857 32.396 A 1497.418 1497.418 0 0 0 160.913 32.325 Q 162.675 30.075 164.1 28.163 A 154.522 154.522 0 0 0 164.673 27.389 Q 165.388 26.416 165.727 25.914 A 9.177 9.177 0 0 0 165.9 25.65 A 293.449 293.449 0 0 0 166.362 25.566 Q 166.889 25.469 167.625 25.332 A 1311.691 1311.691 0 0 0 168.338 25.2 Q 169.603 24.965 170.245 24.591 A 1.963 1.963 0 0 0 170.55 24.375 A 1.014 1.014 0 0 1 170.687 24.259 Q 170.769 24.202 170.851 24.175 A 0.472 0.472 0 0 1 171 24.15 Q 171.143 24.15 171.184 24.388 A 0.885 0.885 0 0 1 171.188 24.413 A 0.535 0.535 0 0 1 171.193 24.488 Q 171.193 24.718 171 24.975 A 4.253 4.253 0 0 0 170.773 25.271 Q 170.42 25.767 169.839 26.759 A 60.36 60.36 0 0 0 169.463 27.413 Q 168.375 29.325 167.138 31.65 Q 165.9 33.975 164.85 35.85 Q 165.75 34.65 166.8 33.525 Q 167.85 32.4 168.825 31.35 A 26.893 26.893 0 0 1 169.453 30.744 Q 170.217 30.028 171.3 29.1 Q 172.875 27.75 174.6 26.625 Q 176.32 25.503 177.593 25.351 A 3.573 3.573 0 0 1 177.6 25.35 A 2.604 2.604 0 0 1 177.917 25.29 A 2.035 2.035 0 0 1 178.163 25.275 L 178.575 25.275 A 3.342 3.342 0 0 1 179.167 25.323 Q 180.225 25.514 180.225 26.475 Q 180.225 27.234 179.532 28.419 A 11.359 11.359 0 0 1 179.25 28.875 Q 178.767 29.635 177.806 31.317 A 186.444 186.444 0 0 0 177.638 31.613 Q 176.55 33.525 175.463 35.738 Q 174.375 37.95 173.588 39.863 A 19.765 19.765 0 0 0 173.243 40.756 Q 172.952 41.572 172.852 42.144 A 3.125 3.125 0 0 0 172.8 42.675 A 1.512 1.512 0 0 0 172.852 43.091 Q 172.986 43.557 173.461 43.68 A 1.547 1.547 0 0 0 173.85 43.725 Q 174.77 43.725 175.827 43.061 A 7.908 7.908 0 0 0 176.663 42.45 A 25.745 25.745 0 0 0 178.032 41.223 Q 178.731 40.554 179.476 39.757 A 47.806 47.806 0 0 0 180 39.188 A 88.525 88.525 0 0 0 182.7 36.059 A 98.592 98.592 0 0 0 183.6 34.95 Q 183.737 35.087 183.749 35.412 A 1.733 1.733 0 0 1 183.75 35.475 A 1.677 1.677 0 0 1 183.546 36.269 A 2.158 2.158 0 0 1 183.413 36.488 Q 183.075 36.975 182.775 37.35 Q 182.104 38.222 181.043 39.484 A 121.062 121.062 0 0 1 180.788 39.788 Q 179.55 41.25 178.275 42.638 A 27.765 27.765 0 0 1 177.35 43.599 Q 176.885 44.059 176.455 44.432 A 13.466 13.466 0 0 1 175.95 44.85 Q 175.2 45.375 174 45.975 Q 172.8 46.575 171.6 46.575 A 4.003 4.003 0 0 1 170.941 46.525 Q 170.594 46.467 170.325 46.341 A 1.527 1.527 0 0 1 169.725 45.863 A 2.647 2.647 0 0 1 169.257 44.753 A 3.616 3.616 0 0 1 169.2 44.1 A 7.276 7.276 0 0 1 169.358 42.625 A 9.471 9.471 0 0 1 169.65 41.55 Q 170.1 40.2 170.663 38.963 A 122.16 122.16 0 0 1 170.927 38.384 Q 171.3 37.575 171.525 37.125 A 251.833 251.833 0 0 0 172.819 34.575 A 206.163 206.163 0 0 0 174 32.175 A 541.29 541.29 0 0 0 174.52 31.097 Q 175.162 29.764 175.5 29.038 A 57.461 57.461 0 0 0 175.575 28.875 Q 175.8 28.425 175.8 28.125 A 0.463 0.463 0 0 0 175.786 28.005 Q 175.696 27.672 175.029 28.021 A 3.592 3.592 0 0 0 174.975 28.05 Q 174.421 28.352 173.714 28.858 A 24.011 24.011 0 0 0 172.988 29.4 A 45.446 45.446 0 0 0 171.608 30.51 A 37.835 37.835 0 0 0 170.85 31.163 A 103.725 103.725 0 0 0 170.456 31.513 Q 169.923 31.989 169.67 32.232 A 6.709 6.709 0 0 0 169.575 32.325 Q 166.8 35.25 164.738 38.813 Q 162.675 42.375 161.25 46.125 A 5.506 5.506 0 0 0 159.696 46.483 A 6.488 6.488 0 0 0 159.3 46.65 Q 158.419 47.057 158.028 47.096 A 0.784 0.784 0 0 1 157.95 47.1 Z M 327.225 2.55 L 327.225 4.725 A 0.275 0.275 0 0 1 327.182 4.882 Q 327.109 4.99 326.915 5.016 A 1.039 1.039 0 0 1 326.775 5.025 A 0.499 0.499 0 0 1 326.696 5.019 Q 326.557 4.997 326.55 4.886 A 0.189 0.189 0 0 1 326.55 4.875 A 2.092 2.092 0 0 0 326.459 4.236 Q 326.24 3.553 325.5 3.263 A 5.851 5.851 0 0 0 323.892 2.873 A 5.365 5.365 0 0 0 323.4 2.85 Q 319.275 2.85 315.975 4.988 A 22.276 22.276 0 0 0 310.94 9.502 A 25.809 25.809 0 0 0 310.125 10.538 A 47.71 47.71 0 0 0 306.064 17.026 A 53.23 53.23 0 0 0 305.55 18.038 A 125.383 125.383 0 0 0 302.335 25.045 A 112.958 112.958 0 0 0 301.913 26.063 A 202.664 202.664 0 0 1 300.394 29.675 Q 299.659 31.376 298.967 32.876 A 120.65 120.65 0 0 1 298.875 33.075 L 298.875 33.225 A 0.45 0.45 0 0 0 298.878 33.275 Q 298.889 33.375 298.95 33.375 A 0.088 0.088 0 0 0 298.986 33.357 Q 299.143 33.248 299.909 32.49 A 84.093 84.093 0 0 0 300.188 32.213 Q 300.987 31.413 302.07 30.419 A 104.576 104.576 0 0 1 303.113 29.475 Q 304.875 27.9 306.825 26.738 Q 308.307 25.854 309.615 25.642 A 5.056 5.056 0 0 1 310.425 25.575 Q 311.25 25.575 311.475 26.138 A 3.167 3.167 0 0 1 311.686 27.045 A 3.814 3.814 0 0 1 311.7 27.375 L 311.7 28.05 Q 311.351 30.635 309.993 33.61 A 29.068 29.068 0 0 1 309.788 34.05 Q 308.25 37.275 305.888 40.163 A 22.441 22.441 0 0 1 302.391 43.619 A 19.736 19.736 0 0 1 300.638 44.85 Q 297.75 46.65 294.6 46.65 Q 293.625 46.65 292.275 46.313 A 2.215 2.215 0 0 1 291.653 46.062 Q 290.925 45.616 290.925 44.625 Q 290.925 44.1 291.15 43.425 A 18.389 18.389 0 0 1 291.368 42.806 Q 291.477 42.515 291.586 42.259 A 11.157 11.157 0 0 1 291.6 42.225 Q 292.35 40.275 293.175 38.25 Q 294 36.225 294.9 34.125 Q 293.925 35.25 293.063 36.188 Q 292.2 37.125 291.825 37.575 A 1.812 1.812 0 0 1 291.731 37.691 Q 291.568 37.875 291.45 37.875 Q 291.3 37.875 291.3 37.5 Q 291.3 36.9 291.675 36.375 Q 292.725 35.025 294.075 33.525 Q 295.425 32.025 296.7 30.375 Q 299.85 23.775 303.75 17.588 Q 307.65 11.4 312.525 6.6 A 48.15 48.15 0 0 1 314.438 4.881 A 60.147 60.147 0 0 1 315.9 3.675 Q 317.775 2.175 319.913 1.125 A 10.499 10.499 0 0 1 322.239 0.291 A 8.691 8.691 0 0 1 324.15 0.075 Q 325.275 0.075 326.213 0.675 Q 327.15 1.275 327.225 2.55 Z M 316.575 46.125 Q 314.325 46.125 313.5 45.038 A 4.02 4.02 0 0 1 312.733 43.177 A 5.35 5.35 0 0 1 312.675 42.375 A 10.8 10.8 0 0 1 312.955 39.988 A 14.807 14.807 0 0 1 313.613 37.875 Q 314.55 35.475 315.15 34.125 A 961.147 961.147 0 0 0 313.73 35.658 A 855.719 855.719 0 0 0 313.275 36.15 Q 312.375 37.125 312 37.575 A 1.812 1.812 0 0 1 311.906 37.691 Q 311.743 37.875 311.625 37.875 Q 311.475 37.875 311.475 37.5 Q 311.475 36.9 311.85 36.375 Q 312.9 35.025 314.25 33.525 Q 315.6 32.025 316.875 30.375 A 162.827 162.827 0 0 0 318.252 27.767 Q 318.947 26.424 319.702 24.913 A 287.634 287.634 0 0 0 320.213 23.888 A 1077.512 1077.512 0 0 1 323.543 17.218 A 1182.268 1182.268 0 0 1 324.038 16.238 Q 326.025 12.3 327.938 8.963 Q 329.222 6.72 330.321 5.07 A 36.024 36.024 0 0 1 331.35 3.6 Q 332.625 3.075 333.788 2.25 Q 334.95 1.425 336.113 0.713 A 4.779 4.779 0 0 1 337.682 0.085 A 4.431 4.431 0 0 1 338.55 0 A 2.403 2.403 0 0 1 339.025 0.044 Q 339.504 0.141 339.788 0.45 Q 340.2 0.9 340.35 1.5 A 0.968 0.968 0 0 1 340.383 1.636 Q 340.423 1.864 340.425 2.284 A 9.288 9.288 0 0 1 340.425 2.325 A 6.543 6.543 0 0 1 340.275 3.662 Q 340.141 4.301 339.888 5.016 A 16.512 16.512 0 0 1 339.263 6.525 Q 338.1 9 336.563 11.363 A 111.96 111.96 0 0 1 335.82 12.49 Q 334.744 14.1 333.9 15.225 A 82.307 82.307 0 0 1 329.704 20.628 A 70.268 70.268 0 0 1 327.75 22.838 A 125.141 125.141 0 0 1 325.477 25.239 Q 324.34 26.407 323.3 27.404 A 64.937 64.937 0 0 1 322.088 28.538 A 979.235 979.235 0 0 0 320.918 29.604 Q 319.294 31.088 318.45 31.875 A 23.24 23.24 0 0 0 318.104 32.547 Q 317.709 33.341 317.228 34.428 A 71.63 71.63 0 0 0 317.213 34.463 Q 316.5 36.075 315.975 37.838 A 13.496 13.496 0 0 0 315.59 39.483 A 9.905 9.905 0 0 0 315.45 41.1 A 4.483 4.483 0 0 0 315.553 42.085 A 3.241 3.241 0 0 0 316.05 43.238 A 1.882 1.882 0 0 0 317.053 43.958 Q 317.496 44.1 318.075 44.1 L 318.525 44.1 A 1.653 1.653 0 0 0 318.72 44.088 Q 318.815 44.076 318.92 44.055 A 3.173 3.173 0 0 0 319.05 44.025 Q 319.993 43.859 321.06 43.159 A 10.12 10.12 0 0 0 321.825 42.6 A 28.288 28.288 0 0 0 323.7 40.954 A 34.101 34.101 0 0 0 324.825 39.825 Q 326.325 38.25 327.525 36.825 A 35.986 35.986 0 0 0 328.241 35.982 A 30.868 30.868 0 0 0 328.5 35.663 A 35.197 35.197 0 0 0 328.694 35.417 Q 328.934 35.112 329.054 34.942 A 3.209 3.209 0 0 0 329.1 34.875 Q 329.554 35.329 329.195 35.979 A 2.139 2.139 0 0 1 329.063 36.188 L 328.125 37.5 A 34.431 34.431 0 0 1 327.834 37.868 Q 327.506 38.279 327.057 38.819 A 124.71 124.71 0 0 1 326.625 39.338 Q 325.65 40.5 324.375 41.85 A 20.203 20.203 0 0 1 322.836 43.231 Q 322.046 43.873 321.118 44.516 A 33.265 33.265 0 0 1 320.85 44.7 A 8.8 8.8 0 0 1 318.931 45.699 A 6.825 6.825 0 0 1 316.575 46.125 Z M 266.175 25.5 L 272.25 25.5 A 4.616 4.616 0 0 1 272.509 25.507 Q 272.873 25.527 273.003 25.612 A 0.135 0.135 0 0 1 273.075 25.725 A 0.23 0.23 0 0 1 272.996 25.884 Q 272.776 26.105 271.95 26.325 Q 270.675 26.7 269.288 26.775 Q 267.9 26.85 266.738 27.075 A 3.537 3.537 0 0 0 266.021 27.289 Q 265.582 27.476 265.28 27.776 A 2.022 2.022 0 0 0 265.05 28.05 A 3.299 3.299 0 0 0 264.818 28.362 Q 264.447 28.92 263.895 30.051 A 37.87 37.87 0 0 0 263.775 30.3 A 80.391 80.391 0 0 0 262.949 32.086 Q 262.524 33.034 262.073 34.095 A 132.13 132.13 0 0 0 262.013 34.238 Q 261.075 36.45 260.4 38.663 Q 259.725 40.875 259.575 42.375 L 259.575 42.675 Q 259.575 43.275 259.95 43.65 A 1.691 1.691 0 0 0 260.179 43.844 Q 260.315 43.939 260.451 43.984 A 0.786 0.786 0 0 0 260.7 44.025 A 2.156 2.156 0 0 0 261.364 43.908 Q 261.977 43.708 262.749 43.168 A 10.983 10.983 0 0 0 263.213 42.825 Q 264.75 41.625 266.4 39.938 Q 267.94 38.362 269.089 37.015 A 40.686 40.686 0 0 0 269.25 36.825 A 31.784 31.784 0 0 0 269.747 36.244 A 24.365 24.365 0 0 0 270.188 35.7 Q 270.518 35.28 270.632 35.1 A 0.894 0.894 0 0 0 270.675 35.025 Q 270.825 35.325 270.825 35.475 Q 270.825 35.925 270.563 36.45 Q 270.3 36.975 270 37.35 Q 268.575 39.225 266.55 41.288 A 23.81 23.81 0 0 1 263.086 44.218 A 21.643 21.643 0 0 1 262.238 44.775 A 9.696 9.696 0 0 1 259.849 45.866 A 8.103 8.103 0 0 1 257.55 46.2 Q 256.814 46.2 256.294 45.911 A 1.967 1.967 0 0 1 256.275 45.9 Q 255.75 45.6 255.75 44.775 A 4.871 4.871 0 0 1 255.836 43.898 Q 255.915 43.465 256.068 42.983 A 10.624 10.624 0 0 1 256.313 42.3 Q 256.875 40.875 257.55 39.45 A 202.063 202.063 0 0 1 257.873 38.77 Q 258.272 37.937 258.578 37.321 A 65.926 65.926 0 0 1 258.675 37.125 A 11.28 11.28 0 0 0 258.879 36.738 Q 259.209 36.084 259.688 34.988 A 624.055 624.055 0 0 1 260.344 33.488 A 724.873 724.873 0 0 1 261.038 31.913 A 593.228 593.228 0 0 0 261.54 30.772 Q 261.737 30.325 261.911 29.926 A 290.373 290.373 0 0 0 262.238 29.175 L 262.725 28.05 A 27.74 27.74 0 0 0 262.362 28.463 Q 261.778 29.138 260.963 30.15 Q 259.875 31.5 258.638 32.963 A 129.136 129.136 0 0 0 257.456 34.378 A 101.201 101.201 0 0 0 256.388 35.7 Q 255.375 36.975 254.925 37.575 A 1.812 1.812 0 0 1 254.831 37.691 Q 254.668 37.875 254.55 37.875 Q 254.4 37.875 254.4 37.5 Q 254.4 36.9 254.775 36.375 A 445.868 445.868 0 0 0 255.503 35.463 Q 255.828 35.054 256.19 34.598 A 891.251 891.251 0 0 0 256.95 33.638 Q 258.225 32.025 259.538 30.375 Q 260.85 28.725 261.825 27.45 A 12.646 12.646 0 0 0 261.373 27.459 Q 260.903 27.476 260.288 27.525 Q 259.35 27.6 258.6 27.713 A 86.889 86.889 0 0 1 258.423 27.739 Q 257.841 27.825 257.775 27.825 A 0.323 0.323 0 0 1 257.702 27.818 Q 257.478 27.766 257.767 27.341 A 3.053 3.053 0 0 1 257.85 27.225 Q 258.263 26.675 258.928 26.125 A 9.551 9.551 0 0 1 259.05 26.025 Q 259.8 25.425 260.175 25.425 A 1.87 1.87 0 0 1 260.21 25.426 Q 260.391 25.43 261.375 25.463 Q 262.458 25.499 262.985 25.5 A 15.636 15.636 0 0 0 263.025 25.5 Q 264.525 23.475 265.988 20.85 A 71.599 71.599 0 0 0 267.779 17.41 A 88.281 88.281 0 0 0 268.875 15.075 A 2.07 2.07 0 0 0 269.216 14.997 Q 269.77 14.827 270.728 14.324 A 23.469 23.469 0 0 0 270.938 14.213 Q 272.057 13.61 272.803 12.985 A 6.486 6.486 0 0 0 273.225 12.6 Q 273.591 12.234 273.814 12.225 A 0.277 0.277 0 0 1 273.825 12.225 A 0.475 0.475 0 0 1 273.915 12.233 Q 274.201 12.289 273.881 12.748 A 2.72 2.72 0 0 1 273.825 12.825 A 7.611 7.611 0 0 0 273.538 13.178 Q 273.001 13.873 272.025 15.338 Q 271.148 16.652 270.13 18.322 A 136.757 136.757 0 0 0 269.175 19.913 Q 267.6 22.575 266.175 25.5 Z M 82.353 47.014 A 0.2 0.2 0 0 0 82.425 47.025 Q 82.718 47.025 83.377 46.773 A 12.18 12.18 0 0 0 83.775 46.613 A 7.01 7.01 0 0 1 84.08 46.492 A 6.086 6.086 0 0 1 85.725 46.125 A 21.953 21.953 0 0 1 85.843 45.782 Q 85.986 45.375 86.189 44.838 A 77.751 77.751 0 0 1 86.4 44.288 Q 86.85 43.125 87.3 41.925 A 30.154 30.154 0 0 1 87.92 40.416 A 36.009 36.009 0 0 1 89.4 37.463 Q 90.117 36.176 91.119 34.806 A 37.366 37.366 0 0 1 92.85 32.625 A 42.265 42.265 0 0 1 94.144 31.226 A 34.762 34.762 0 0 1 96.3 29.175 A 11.699 11.699 0 0 1 96.763 28.792 Q 98.19 27.675 99.225 27.675 Q 99.977 27.675 100.455 28.04 A 1.79 1.79 0 0 1 100.988 28.725 A 5.055 5.055 0 0 1 101.285 29.544 A 5.784 5.784 0 0 1 101.475 31.05 Q 101.475 31.5 101.438 31.875 Q 101.4 32.25 101.325 32.625 A 0.461 0.461 0 0 0 101.322 32.637 Q 101.265 32.895 101.623 32.767 A 1.581 1.581 0 0 0 101.7 32.738 Q 102.002 32.612 102.135 32.469 A 0.397 0.397 0 0 0 102.225 32.325 Q 102.45 31.875 102.865 31.109 A 113.919 113.919 0 0 1 103.163 30.563 Q 103.8 29.4 103.8 28.125 A 3.581 3.581 0 0 0 103.767 27.63 A 2.744 2.744 0 0 0 103.575 26.925 A 4.426 4.426 0 0 0 103.428 26.563 Q 103.278 26.237 103.092 25.989 A 2.047 2.047 0 0 0 102.525 25.463 Q 101.85 25.05 100.875 25.05 Q 99.525 25.05 97.988 26.025 A 16.623 16.623 0 0 0 96.744 26.898 A 20.515 20.515 0 0 0 94.95 28.463 A 36.82 36.82 0 0 0 94.764 28.646 A 33.568 33.568 0 0 0 92.213 31.463 A 55.181 55.181 0 0 0 91.487 32.383 Q 91.148 32.823 90.856 33.223 A 26.402 26.402 0 0 0 90.225 34.125 A 1573.21 1573.21 0 0 0 90.717 33.216 A 1771.152 1771.152 0 0 0 92.25 30.375 Q 93.3 28.425 94.163 26.925 Q 95.025 25.425 95.475 24.975 Q 95.668 24.718 95.668 24.488 A 0.535 0.535 0 0 0 95.663 24.413 A 0.885 0.885 0 0 0 95.659 24.388 Q 95.618 24.15 95.475 24.15 A 0.472 0.472 0 0 0 95.326 24.175 Q 95.244 24.202 95.162 24.259 A 1.014 1.014 0 0 0 95.025 24.375 A 1.963 1.963 0 0 1 94.72 24.591 Q 94.078 24.965 92.813 25.2 A 1311.691 1311.691 0 0 1 92.1 25.332 Q 91.364 25.469 90.837 25.566 A 293.449 293.449 0 0 1 90.375 25.65 A 9.177 9.177 0 0 1 90.202 25.914 Q 89.863 26.416 89.148 27.389 A 154.522 154.522 0 0 1 88.575 28.163 Q 87.15 30.075 85.388 32.325 A 1497.418 1497.418 0 0 1 85.332 32.396 Q 84.467 33.5 83.685 34.494 A 853.954 853.954 0 0 1 82.2 36.375 Q 81.825 36.9 81.825 37.5 Q 81.825 37.875 81.975 37.875 Q 82.093 37.875 82.256 37.691 A 1.812 1.812 0 0 0 82.35 37.575 Q 82.856 36.9 83.7 35.845 A 165.966 165.966 0 0 1 84.3 35.1 Q 85.575 33.525 87.038 31.838 A 151.42 151.42 0 0 1 87.911 30.838 Q 88.328 30.365 88.705 29.948 A 73.332 73.332 0 0 1 89.55 29.025 Q 89.325 29.475 88.688 31.013 Q 88.05 32.55 87.225 34.688 A 356.65 356.65 0 0 1 87.173 34.821 A 389.028 389.028 0 0 1 85.5 39.075 A 425.218 425.218 0 0 1 85.486 39.11 Q 84.594 41.339 83.85 43.125 Q 83.475 44.1 83.138 44.925 A 15.991 15.991 0 0 1 82.868 45.547 A 12.896 12.896 0 0 1 82.425 46.425 Q 82.167 46.942 82.353 47.014 Z M 73.275 25.5 L 81.9 25.5 A 0.688 0.688 0 0 1 82.037 25.512 Q 82.248 25.555 82.272 25.748 A 0.42 0.42 0 0 1 82.275 25.8 A 0.762 0.762 0 0 1 82.238 26.048 Q 82.122 26.386 81.64 26.4 A 1.452 1.452 0 0 1 81.6 26.4 A 1.357 1.357 0 0 0 80.944 26.58 Q 80.721 26.701 80.499 26.905 A 3.847 3.847 0 0 0 80.1 27.338 A 28.731 28.731 0 0 0 79.668 27.891 Q 79.294 28.382 79.051 28.756 A 7.935 7.935 0 0 0 78.975 28.875 A 30.581 30.581 0 0 0 78.675 29.358 Q 78.169 30.188 77.325 31.65 A 84.512 84.512 0 0 0 75.904 34.219 A 102.716 102.716 0 0 0 75.038 35.888 Q 73.875 38.175 73.05 40.125 A 20.17 20.17 0 0 0 72.69 41.031 Q 72.387 41.856 72.282 42.431 A 3.049 3.049 0 0 0 72.225 42.975 A 1.512 1.512 0 0 0 72.277 43.391 Q 72.411 43.857 72.886 43.98 A 1.547 1.547 0 0 0 73.275 44.025 A 2.949 2.949 0 0 0 74.2 43.865 Q 74.957 43.615 75.825 42.975 A 19.645 19.645 0 0 0 77.395 41.681 A 25.805 25.805 0 0 0 78.713 40.388 A 50.375 50.375 0 0 0 81.02 37.793 A 45.199 45.199 0 0 0 81.413 37.313 Q 82.36 36.135 83.022 35.332 A 102.809 102.809 0 0 1 83.4 34.875 Q 83.85 35.325 83.363 36.113 Q 83.043 36.629 82.772 37 A 6.996 6.996 0 0 1 82.5 37.35 A 48.026 48.026 0 0 1 80.505 39.768 A 59.482 59.482 0 0 1 79.05 41.363 A 20.518 20.518 0 0 1 75.238 44.546 A 19.099 19.099 0 0 1 74.813 44.813 Q 72.525 46.2 70.125 46.2 Q 69.389 46.2 68.869 45.911 A 1.967 1.967 0 0 1 68.85 45.9 Q 68.325 45.6 68.325 44.775 A 5.105 5.105 0 0 1 68.422 43.817 Q 68.51 43.355 68.68 42.847 A 10.105 10.105 0 0 1 68.85 42.375 Q 69.375 41.025 70.05 39.713 A 40.222 40.222 0 0 1 70.516 38.832 Q 70.715 38.468 70.898 38.154 A 17.837 17.837 0 0 1 71.25 37.575 Q 68.625 40.35 65.775 42.825 A 24.73 24.73 0 0 1 63.261 44.676 A 28.01 28.01 0 0 1 62.625 45.075 Q 60.9 46.125 58.95 46.125 A 1.8 1.8 0 0 1 58.564 46.087 Q 58.116 45.988 57.9 45.638 A 1.994 1.994 0 0 1 57.635 44.917 A 2.652 2.652 0 0 1 57.6 44.475 A 2.967 2.967 0 0 1 57.605 44.302 Q 57.619 44.063 57.675 43.95 A 18.167 18.167 0 0 1 58.517 40.397 A 23.559 23.559 0 0 1 59.55 37.875 Q 61.05 34.725 63.225 31.95 Q 65.4 29.175 67.65 27.45 Q 70.2 25.5 73.275 25.5 Z M 282.75 25.5 L 291.375 25.5 A 0.688 0.688 0 0 1 291.512 25.512 Q 291.723 25.555 291.747 25.748 A 0.42 0.42 0 0 1 291.75 25.8 A 0.762 0.762 0 0 1 291.713 26.048 Q 291.597 26.386 291.115 26.4 A 1.452 1.452 0 0 1 291.075 26.4 A 1.357 1.357 0 0 0 290.419 26.58 Q 290.196 26.701 289.974 26.905 A 3.847 3.847 0 0 0 289.575 27.338 A 28.731 28.731 0 0 0 289.143 27.891 Q 288.769 28.382 288.526 28.756 A 7.935 7.935 0 0 0 288.45 28.875 A 30.581 30.581 0 0 0 288.15 29.358 Q 287.644 30.188 286.8 31.65 A 84.512 84.512 0 0 0 285.379 34.219 A 102.716 102.716 0 0 0 284.513 35.888 Q 283.35 38.175 282.525 40.125 A 20.17 20.17 0 0 0 282.165 41.031 Q 281.862 41.856 281.757 42.431 A 3.049 3.049 0 0 0 281.7 42.975 A 1.512 1.512 0 0 0 281.752 43.391 Q 281.886 43.857 282.361 43.98 A 1.547 1.547 0 0 0 282.75 44.025 A 2.949 2.949 0 0 0 283.675 43.865 Q 284.432 43.615 285.3 42.975 A 19.645 19.645 0 0 0 286.87 41.681 A 25.805 25.805 0 0 0 288.188 40.388 A 50.375 50.375 0 0 0 290.495 37.793 A 45.199 45.199 0 0 0 290.888 37.313 Q 291.835 36.135 292.497 35.332 A 102.809 102.809 0 0 1 292.875 34.875 Q 293.325 35.325 292.838 36.113 Q 292.518 36.629 292.247 37 A 6.996 6.996 0 0 1 291.975 37.35 A 48.026 48.026 0 0 1 289.98 39.768 A 59.482 59.482 0 0 1 288.525 41.363 A 20.518 20.518 0 0 1 284.713 44.546 A 19.099 19.099 0 0 1 284.288 44.813 Q 282 46.2 279.6 46.2 Q 278.864 46.2 278.344 45.911 A 1.967 1.967 0 0 1 278.325 45.9 Q 277.8 45.6 277.8 44.775 A 5.105 5.105 0 0 1 277.897 43.817 Q 277.985 43.355 278.155 42.847 A 10.105 10.105 0 0 1 278.325 42.375 Q 278.85 41.025 279.525 39.713 A 40.222 40.222 0 0 1 279.991 38.832 Q 280.19 38.468 280.373 38.154 A 17.837 17.837 0 0 1 280.725 37.575 Q 278.1 40.35 275.25 42.825 A 24.73 24.73 0 0 1 272.736 44.676 A 28.01 28.01 0 0 1 272.1 45.075 Q 270.375 46.125 268.425 46.125 A 1.8 1.8 0 0 1 268.039 46.087 Q 267.591 45.988 267.375 45.638 A 1.994 1.994 0 0 1 267.11 44.917 A 2.652 2.652 0 0 1 267.075 44.475 A 2.967 2.967 0 0 1 267.08 44.302 Q 267.094 44.063 267.15 43.95 A 18.167 18.167 0 0 1 267.992 40.397 A 23.559 23.559 0 0 1 269.025 37.875 Q 270.525 34.725 272.7 31.95 Q 274.875 29.175 277.125 27.45 Q 279.675 25.5 282.75 25.5 Z M 327.675 45.375 A 2.89 2.89 0 0 0 328.123 45.739 Q 329.383 46.575 331.95 46.575 Q 335.1 46.575 338.025 45.038 Q 340.95 43.5 343.35 41.25 A 41.733 41.733 0 0 0 343.684 40.933 Q 344.761 39.902 345.646 38.902 A 24.6 24.6 0 0 0 347.25 36.9 A 8.823 8.823 0 0 0 347.323 36.784 Q 347.649 36.253 347.74 35.923 A 0.854 0.854 0 0 0 347.775 35.7 Q 347.775 35.4 347.55 35.175 Q 346.88 36.052 345.802 37.23 A 64.288 64.288 0 0 1 344.738 38.363 Q 342.9 40.275 340.725 41.925 A 17.884 17.884 0 0 1 339.212 42.958 A 14.316 14.316 0 0 1 336.3 44.325 Q 335.325 44.625 334.5 44.775 A 11.85 11.85 0 0 1 334.144 44.834 Q 333.541 44.925 333.075 44.925 Q 331.575 44.925 330.938 44.1 A 2.959 2.959 0 0 1 330.397 42.927 A 4.193 4.193 0 0 1 330.3 42 A 7.428 7.428 0 0 1 330.3 41.93 Q 330.305 41.403 330.385 40.821 A 12.212 12.212 0 0 1 330.6 39.675 A 17.785 17.785 0 0 1 330.809 38.871 A 20.667 20.667 0 0 1 331.425 37.05 A 12.961 12.961 0 0 0 332.459 37.008 A 15.62 15.62 0 0 0 334.275 36.75 A 60.45 60.45 0 0 0 334.689 36.666 Q 335.933 36.408 336.9 36.15 A 30.163 30.163 0 0 0 338.327 35.653 A 36.412 36.412 0 0 0 340.8 34.613 A 12.316 12.316 0 0 0 341.477 34.274 A 10.455 10.455 0 0 0 344.213 32.175 A 5.02 5.02 0 0 0 345.358 30.149 A 6.38 6.38 0 0 0 345.6 28.35 A 4.269 4.269 0 0 0 345.599 28.251 A 3.415 3.415 0 0 0 344.85 26.138 Q 344.1 25.2 342.15 25.2 A 8.31 8.31 0 0 0 339.562 25.63 A 11.487 11.487 0 0 0 337.5 26.55 Q 335.1 27.9 333.075 29.85 Q 331.05 31.8 329.85 33.6 A 31.274 31.274 0 0 0 329.352 34.45 Q 328.931 35.192 328.494 36.049 A 59.095 59.095 0 0 0 327.638 37.8 Q 327.093 38.96 326.803 40.054 A 9.355 9.355 0 0 0 326.475 42.45 A 4.92 4.92 0 0 0 326.475 42.504 A 3.974 3.974 0 0 0 327.675 45.375 Z M 158.25 35.7 L 158.4 35.55 Q 158.6 35.55 158.622 35.905 A 1.515 1.515 0 0 1 158.625 36 Q 158.625 36.525 158.325 36.975 A 15.832 15.832 0 0 1 155.058 40.329 A 18.05 18.05 0 0 1 154.575 40.688 Q 152.325 42.3 149.475 42.3 L 148.875 42.3 Q 148.575 42.3 148.275 42.225 A 15.138 15.138 0 0 1 144.18 44.992 A 12.929 12.929 0 0 1 138.825 46.125 A 5.049 5.049 0 0 1 137.624 45.987 A 4.162 4.162 0 0 1 136.688 45.638 A 1.546 1.546 0 0 1 135.972 44.83 Q 135.848 44.535 135.793 44.155 A 4.616 4.616 0 0 1 135.75 43.5 A 10.978 10.978 0 0 1 136.447 39.707 A 13.766 13.766 0 0 1 137.1 38.213 A 43.787 43.787 0 0 1 138.469 35.709 A 33.066 33.066 0 0 1 139.875 33.525 Q 141.15 31.8 142.763 30.263 Q 144.375 28.725 146.25 27.6 A 14.591 14.591 0 0 1 147.177 27.071 Q 147.668 26.812 148.252 26.541 A 36.059 36.059 0 0 1 149.513 25.988 Q 150.855 25.426 151.927 25.23 A 5.988 5.988 0 0 1 153 25.125 Q 154.2 25.125 155.1 25.763 Q 156 26.4 156 28.05 A 10.842 10.842 0 0 1 155.435 31.445 A 13.962 13.962 0 0 1 154.688 33.263 A 39.953 39.953 0 0 1 153.261 35.912 A 30.416 30.416 0 0 1 151.95 37.95 A 34.25 34.25 0 0 1 150.938 39.237 A 30.308 30.308 0 0 1 150.6 39.638 A 26.912 26.912 0 0 1 149.698 40.637 A 32.088 32.088 0 0 1 149.1 41.25 Q 151.875 41.25 154.2 39.638 Q 156.525 38.025 158.25 35.7 Z M 319.725 28.875 A 49.81 49.81 0 0 0 321.299 27.492 Q 323.163 25.788 325.613 23.288 A 52.15 52.15 0 0 0 329.147 19.266 A 70.482 70.482 0 0 0 332.625 14.475 A 66.761 66.761 0 0 0 332.843 14.124 Q 333.176 13.583 333.729 12.67 A 511.973 511.973 0 0 0 333.863 12.45 Q 334.725 11.025 335.663 9.188 Q 336.6 7.35 337.275 5.588 A 12.865 12.865 0 0 0 337.659 4.433 Q 337.822 3.849 337.893 3.33 A 5.709 5.709 0 0 0 337.95 2.55 A 3.187 3.187 0 0 0 337.926 2.142 Q 337.823 1.35 337.275 1.35 A 1.35 1.35 0 0 0 336.754 1.469 Q 336.067 1.759 335.12 2.754 A 12.722 12.722 0 0 0 335.1 2.775 A 17.969 17.969 0 0 0 334.075 3.956 Q 332.982 5.324 331.718 7.325 A 59.221 59.221 0 0 0 331.538 7.613 Q 329.55 10.8 327.375 14.7 Q 325.2 18.6 323.213 22.35 A 1201.425 1201.425 0 0 1 321.79 25.025 Q 320.663 27.141 319.725 28.875 Z M 140.775 44.85 A 3.459 3.459 0 0 0 141.783 44.691 Q 142.395 44.504 143.063 44.1 A 15.217 15.217 0 0 0 143.847 43.593 Q 144.222 43.333 144.524 43.083 A 6.501 6.501 0 0 0 144.975 42.675 Q 146.25 41.4 147.3 39.938 Q 148.35 38.475 149.25 36.975 Q 150.152 35.428 151.055 33.383 A 52.208 52.208 0 0 0 151.35 32.7 A 14.369 14.369 0 0 0 152.086 30.519 Q 152.4 29.24 152.4 28.05 A 3.672 3.672 0 0 0 152.354 27.442 Q 152.172 26.363 151.265 26.326 A 1.603 1.603 0 0 0 151.2 26.325 Q 150.265 26.325 148.95 27.084 A 10.155 10.155 0 0 0 148.838 27.15 Q 147.534 27.925 146.859 28.568 A 4.854 4.854 0 0 0 146.775 28.65 Q 144.225 31.275 142.5 34.35 A 57.715 57.715 0 0 0 141.618 35.974 Q 141.033 37.092 140.4 38.4 A 13.037 13.037 0 0 0 139.693 40.159 Q 139.393 41.113 139.308 41.996 A 7.128 7.128 0 0 0 139.275 42.675 A 4.27 4.27 0 0 0 139.29 43.035 A 3.548 3.548 0 0 0 139.313 43.238 A 5.05 5.05 0 0 0 139.367 43.545 A 6.357 6.357 0 0 0 139.425 43.8 A 1.777 1.777 0 0 0 139.645 44.296 Q 139.965 44.779 140.585 44.841 A 1.904 1.904 0 0 0 140.775 44.85 Z M 295.8 45.375 A 3.592 3.592 0 0 0 296.946 45.176 Q 297.412 45.019 297.903 44.74 A 7.495 7.495 0 0 0 298.388 44.438 Q 299.775 43.5 300.525 42.75 A 9.474 9.474 0 0 0 301.12 42.147 Q 301.722 41.486 302.456 40.496 A 36.06 36.06 0 0 0 302.7 40.163 Q 303.975 38.4 305.175 36.3 A 41.167 41.167 0 0 0 306.529 33.734 A 33.701 33.701 0 0 0 307.2 32.25 A 15.574 15.574 0 0 0 307.599 31.213 Q 308.025 29.963 308.025 29.1 A 1.615 1.615 0 0 0 307.978 28.702 A 1.37 1.37 0 0 0 307.875 28.425 A 0.519 0.519 0 0 0 307.677 28.205 Q 307.581 28.147 307.454 28.131 A 0.825 0.825 0 0 0 307.35 28.125 A 1.516 1.516 0 0 0 306.894 28.204 Q 306.339 28.38 305.588 28.95 A 24.854 24.854 0 0 0 304.467 29.856 Q 303.902 30.338 303.301 30.901 A 40.167 40.167 0 0 0 303.263 30.938 A 51.395 51.395 0 0 0 301.804 32.361 A 42.033 42.033 0 0 0 301.013 33.188 Q 300 34.275 299.55 34.8 Q 298.725 35.7 297.45 37.425 A 36.277 36.277 0 0 0 295.178 40.885 A 33.487 33.487 0 0 0 295.163 40.913 A 11.193 11.193 0 0 0 294.673 41.859 Q 294.206 42.889 294.156 43.687 A 3.006 3.006 0 0 0 294.15 43.875 A 1.945 1.945 0 0 0 294.24 44.495 Q 294.53 45.359 295.753 45.375 A 3.552 3.552 0 0 0 295.8 45.375 Z M 62.025 43.575 A 1.785 1.785 0 0 0 62.588 43.471 Q 63.119 43.293 63.817 42.809 A 11.919 11.919 0 0 0 64.538 42.263 A 29.325 29.325 0 0 0 65.999 40.985 Q 66.727 40.307 67.503 39.508 A 52.052 52.052 0 0 0 68.025 38.963 Q 69.9 36.975 71.55 34.763 A 57.521 57.521 0 0 0 72.886 32.898 Q 73.676 31.746 74.288 30.713 A 14.493 14.493 0 0 0 74.763 29.848 Q 75.375 28.631 75.375 27.9 A 2.167 2.167 0 0 0 75.341 27.499 Q 75.3 27.282 75.21 27.118 A 0.901 0.901 0 0 0 74.888 26.775 Q 74.453 26.508 73.811 26.479 A 3.542 3.542 0 0 0 73.65 26.475 A 3.887 3.887 0 0 0 72.484 26.665 Q 71.8 26.879 71.063 27.338 A 16.896 16.896 0 0 0 70.101 27.979 Q 69.641 28.311 69.268 28.636 A 8.327 8.327 0 0 0 68.85 29.025 A 8.894 8.894 0 0 0 68.255 29.632 Q 67.563 30.401 66.713 31.613 A 46.106 46.106 0 0 0 65.18 33.948 A 54.862 54.862 0 0 0 64.275 35.475 A 41.167 41.167 0 0 0 62.922 38.041 A 33.701 33.701 0 0 0 62.25 39.525 A 15.574 15.574 0 0 0 61.851 40.563 Q 61.425 41.813 61.425 42.675 Q 61.425 43.542 61.982 43.574 A 0.758 0.758 0 0 0 62.025 43.575 Z M 271.5 43.575 A 1.785 1.785 0 0 0 272.063 43.471 Q 272.594 43.293 273.292 42.809 A 11.919 11.919 0 0 0 274.013 42.263 A 29.325 29.325 0 0 0 275.474 40.985 Q 276.202 40.307 276.978 39.508 A 52.052 52.052 0 0 0 277.5 38.963 Q 279.375 36.975 281.025 34.763 A 57.521 57.521 0 0 0 282.361 32.898 Q 283.151 31.746 283.763 30.713 A 14.493 14.493 0 0 0 284.238 29.848 Q 284.85 28.631 284.85 27.9 A 2.167 2.167 0 0 0 284.816 27.499 Q 284.775 27.282 284.685 27.118 A 0.901 0.901 0 0 0 284.363 26.775 Q 283.928 26.508 283.286 26.479 A 3.542 3.542 0 0 0 283.125 26.475 A 3.887 3.887 0 0 0 281.959 26.665 Q 281.275 26.879 280.538 27.338 A 16.896 16.896 0 0 0 279.576 27.979 Q 279.116 28.311 278.743 28.636 A 8.327 8.327 0 0 0 278.325 29.025 A 8.894 8.894 0 0 0 277.73 29.632 Q 277.038 30.401 276.188 31.613 A 46.106 46.106 0 0 0 274.655 33.948 A 54.862 54.862 0 0 0 273.75 35.475 A 41.167 41.167 0 0 0 272.397 38.041 A 33.701 33.701 0 0 0 271.725 39.525 A 15.574 15.574 0 0 0 271.326 40.563 Q 270.9 41.813 270.9 42.675 Q 270.9 43.542 271.457 43.574 A 0.758 0.758 0 0 0 271.5 43.575 Z M 332.025 35.55 Q 333 35.625 334.238 35.513 Q 335.475 35.4 336.675 35.025 Q 339.088 34.319 340.462 32.943 A 5.997 5.997 0 0 0 341.138 32.138 Q 342.03 30.859 342.349 29.75 A 4.256 4.256 0 0 0 342.525 28.575 A 3.574 3.574 0 0 0 342.468 27.918 Q 342.394 27.523 342.224 27.204 A 2.13 2.13 0 0 0 342.15 27.075 A 1.232 1.232 0 0 0 341.249 26.497 A 1.949 1.949 0 0 0 340.95 26.475 A 5.468 5.468 0 0 0 337.377 27.799 A 7.179 7.179 0 0 0 337.05 28.088 Q 335.325 29.7 334.05 31.8 A 48.057 48.057 0 0 0 333.168 33.312 Q 332.494 34.519 332.025 35.55 Z" vector-effect="non-scaling-stroke"/></g></svg>